{
  "accessors": [
    {
      "bufferView": 2,
      "componentType": 5126,
      "count": 65532,
      "max": [
        6.86320686340332,
        5.491569995880127,
        9.529333114624023
      ],
      "min": [
        -2.1915879249572754,
        -6.772150993347168,
        0.014310999773442745
      ],
      "type": "VEC3"
    },
    {
      "bufferView": 2,
      "byteOffset": 786384,
      "componentType": 5126,
      "count": 65532,
      "max": [
        1.0,
        0.9999995231628418,
        0.999988317489624
      ],
      "min": [
        -0.9999971389770508,
        -1.0,
        -0.9999955892562866
      ],
      "type": "VEC3"
    },
    {
      "bufferView": 1,
      "componentType": 5126,
      "count": 65532,
      "max": [
        0.9966719746589661,
        0.9882789850234985
      ],
      "min": [
        0.00031900001340545714,
        0.0003229999856557697
      ],
      "type": "VEC2"
    },
    {
      "bufferView": 0,
      "componentType": 5125,
      "count": 197784,
      "type": "SCALAR"
    },
    {
      "bufferView": 2,
      "byteOffset": 1572768,
      "componentType": 5126,
      "count": 65532,
      "max": [
        6.737849235534668,
        6.256468772888184,
        8.551470756530762
      ],
      "min": [
        -2.797197103500366,
        -6.192582130432129,
        0.014312000013887882
      ],
      "type": "VEC3"
    },
    {
      "bufferView": 2,
      "byteOffset": 2359152,
      "componentType": 5126,
      "count": 65532,
      "max": [
        1.0,
        0.9999979734420776,
        0.9999994039535522
      ],
      "min": [
        -0.9999998807907104,
        -0.9999998807907104,
        -0.9998287558555603
      ],
      "type": "VEC3"
    },
    {
      "bufferView": 1,
      "byteOffset": 524256,
      "componentType": 5126,
      "count": 65532,
      "max": [
        0.9998779892921448,
        0.9882979989051819
      ],
      "min": [
        0.00031900001340545714,
        0.0003330000035930425
      ],
      "type": "VEC2"
    },
    {
      "bufferView": 0,
      "byteOffset": 791136,
      "componentType": 5125,
      "count": 193821,
      "type": "SCALAR"
    },
    {
      "bufferView": 2,
      "byteOffset": 3145536,
      "componentType": 5126,
      "count": 65532,
      "max": [
        6.628017902374268,
        4.559214115142822,
        14.472782135009766
      ],
      "min": [
        -3.2658960819244385,
        -6.694332122802734,
        2.0424070358276367
      ],
      "type": "VEC3"
    },
    {
      "bufferView": 2,
      "byteOffset": 3931920,
      "componentType": 5126,
      "count": 65532,
      "max": [
        0.9999849796295166,
        0.9999929666519165,
        0.9998425841331482
      ],
      "min": [
        -0.9999948740005493,
        -0.9999895095825195,
        -0.9999221563339233
      ],
      "type": "VEC3"
    },
    {
      "bufferView": 1,
      "byteOffset": 1048512,
      "componentType": 5126,
      "count": 65532,
      "max": [
        0.9905660152435303,
        0.988290011882782
      ],
      "min": [
        0.00031900001340545714,
        0.00031999999191612005
      ],
      "type": "VEC2"
    },
    {
      "bufferView": 0,
      "byteOffset": 1566420,
      "componentType": 5125,
      "count": 196698,
      "type": "SCALAR"
    },
    {
      "bufferView": 2,
      "byteOffset": 4718304,
      "componentType": 5126,
      "count": 65533,
      "max": [
        7.107823848724365,
        5.973444938659668,
        14.656752586364746
      ],
      "min": [
        -3.3085949420928955,
        -3.766123056411743,
        0.8593249917030334
      ],
      "type": "VEC3"
    },
    {
      "bufferView": 2,
      "byteOffset": 5504700,
      "componentType": 5126,
      "count": 65533,
      "max": [
        0.9999727010726929,
        0.9999915361404419,
        0.9999978542327881
      ],
      "min": [
        -0.9999971389770508,
        -0.9999256134033203,
        -0.9999246597290039
      ],
      "type": "VEC3"
    },
    {
      "bufferView": 1,
      "byteOffset": 1572768,
      "componentType": 5126,
      "count": 65533,
      "max": [
        0.9940000176429749,
        0.9882839918136597
      ],
      "min": [
        0.00031900001340545714,
        0.00031900001340545714
      ],
      "type": "VEC2"
    },
    {
      "bufferView": 0,
      "byteOffset": 2353212,
      "componentType": 5125,
      "count": 185169,
      "type": "SCALAR"
    },
    {
      "bufferView": 2,
      "byteOffset": 6291096,
      "componentType": 5126,
      "count": 65532,
      "max": [
        7.107823848724365,
        6.276443958282471,
        14.66304874420166
      ],
      "min": [
        1.9490840435028076,
        -3.1972670555114746,
        0.014310999773442745
      ],
      "type": "VEC3"
    },
    {
      "bufferView": 2,
      "byteOffset": 7077480,
      "componentType": 5126,
      "count": 65532,
      "max": [
        0.9999998807907104,
        1.0,
        0.9999996423721313
      ],
      "min": [
        -0.9999822378158569,
        -0.9998409152030945,
        -0.9999223947525024
      ],
      "type": "VEC3"
    },
    {
      "bufferView": 1,
      "byteOffset": 2097032,
      "componentType": 5126,
      "count": 65532,
      "max": [
        0.9916269779205322,
        0.9883000254631042
      ],
      "min": [
        0.00031900001340545714,
        0.0003349999897181988
      ],
      "type": "VEC2"
    },
    {
      "bufferView": 0,
      "byteOffset": 3093888,
      "componentType": 5125,
      "count": 192357,
      "type": "SCALAR"
    },
    {
      "bufferView": 2,
      "byteOffset": 7863864,
      "componentType": 5126,
      "count": 65532,
      "max": [
        6.994190216064453,
        7.236396789550781,
        14.871440887451172
      ],
      "min": [
        -3.309583902359009,
        -6.497251987457275,
        0.014310999773442745
      ],
      "type": "VEC3"
    },
    {
      "bufferView": 2,
      "byteOffset": 8650248,
      "componentType": 5126,
      "count": 65532,
      "max": [
        0.9999414682388306,
        0.9999997615814209,
        0.9999986886978149
      ],
      "min": [
        -0.9999997615814209,
        -0.9999992847442627,
        -0.9999840259552002
      ],
      "type": "VEC3"
    },
    {
      "bufferView": 1,
      "byteOffset": 2621288,
      "componentType": 5126,
      "count": 65532,
      "max": [
        0.9985049962997437,
        0.988315999507904
      ],
      "min": [
        0.00031900001340545714,
        0.0003370000049471855
      ],
      "type": "VEC2"
    },
    {
      "bufferView": 0,
      "byteOffset": 3863316,
      "componentType": 5125,
      "count": 172998,
      "type": "SCALAR"
    },
    {
      "bufferView": 2,
      "byteOffset": 9436632,
      "componentType": 5126,
      "count": 65532,
      "max": [
        6.975460052490234,
        0.9647960066795349,
        16.52993392944336
      ],
      "min": [
        -1.872398018836975,
        -6.449662208557129,
        0.014312000013887882
      ],
      "type": "VEC3"
    },
    {
      "bufferView": 2,
      "byteOffset": 10223016,
      "componentType": 5126,
      "count": 65532,
      "max": [
        0.9999942779541016,
        0.9999998807907104,
        0.9999951124191284
      ],
      "min": [
        -0.9999960660934448,
        -0.9999880790710449,
        -0.9998007416725159
      ],
      "type": "VEC3"
    },
    {
      "bufferView": 1,
      "byteOffset": 3145544,
      "componentType": 5126,
      "count": 65532,
      "max": [
        0.9966380000114441,
        0.9882950186729431
      ],
      "min": [
        0.00031900001340545714,
        0.00033999999868683517
      ],
      "type": "VEC2"
    },
    {
      "bufferView": 0,
      "byteOffset": 4555308,
      "componentType": 5125,
      "count": 187359,
      "type": "SCALAR"
    },
    {
      "bufferView": 2,
      "byteOffset": 11009400,
      "componentType": 5126,
      "count": 65532,
      "max": [
        7.020092964172363,
        4.7316460609436035,
        12.994538307189941
      ],
      "min": [
        -2.1697330474853516,
        -6.689280986785889,
        0.014310999773442745
      ],
      "type": "VEC3"
    },
    {
      "bufferView": 2,
      "byteOffset": 11795784,
      "componentType": 5126,
      "count": 65532,
      "max": [
        0.9999994039535522,
        0.9999998807907104,
        0.9999994039535522
      ],
      "min": [
        -0.9999940395355225,
        -0.9999978542327881,
        -0.9999960660934448
      ],
      "type": "VEC3"
    },
    {
      "bufferView": 1,
      "byteOffset": 3669800,
      "componentType": 5126,
      "count": 65532,
      "max": [
        0.9972289800643921,
        0.9883000254631042
      ],
      "min": [
        0.00031900001340545714,
        0.002841999987140298
      ],
      "type": "VEC2"
    },
    {
      "bufferView": 0,
      "byteOffset": 5304744,
      "componentType": 5125,
      "count": 190566,
      "type": "SCALAR"
    },
    {
      "bufferView": 2,
      "byteOffset": 12582168,
      "componentType": 5126,
      "count": 65532,
      "max": [
        2.9194118976593018,
        5.317049026489258,
        8.646183967590332
      ],
      "min": [
        -2.396620988845825,
        -6.689280986785889,
        0.014310999773442745
      ],
      "type": "VEC3"
    },
    {
      "bufferView": 2,
      "byteOffset": 13368552,
      "componentType": 5126,
      "count": 65532,
      "max": [
        0.9991329312324524,
        0.9998841285705566,
        0.9999998807907104
      ],
      "min": [
        -1.0,
        -0.999998927116394,
        -0.9999548196792603
      ],
      "type": "VEC3"
    },
    {
      "bufferView": 1,
      "byteOffset": 4194056,
      "componentType": 5126,
      "count": 65532,
      "max": [
        0.9978979825973511,
        0.9883019924163818
      ],
      "min": [
        0.00031900001340545714,
        0.00031999999191612005
      ],
      "type": "VEC2"
    },
    {
      "bufferView": 0,
      "byteOffset": 6067008,
      "componentType": 5125,
      "count": 186225,
      "type": "SCALAR"
    },
    {
      "bufferView": 2,
      "byteOffset": 14154936,
      "componentType": 5126,
      "count": 27883,
      "max": [
        2.8511300086975098,
        3.9843389987945557,
        8.547207832336426
      ],
      "min": [
        -2.658853054046631,
        0.6166880130767822,
        2.386106014251709
      ],
      "type": "VEC3"
    },
    {
      "bufferView": 2,
      "byteOffset": 14489532,
      "componentType": 5126,
      "count": 27883,
      "max": [
        0.9974822998046875,
        0.9998904466629028,
        0.999996542930603
      ],
      "min": [
        -0.9997003674507141,
        -0.9873177409172058,
        -0.9996324181556702
      ],
      "type": "VEC3"
    },
    {
      "bufferView": 1,
      "byteOffset": 4718312,
      "componentType": 5126,
      "count": 27883,
      "max": [
        0.9762380123138428,
        0.9882069826126099
      ],
      "min": [
        0.00031900001340545714,
        0.0003459999861661345
      ],
      "type": "VEC2"
    },
    {
      "bufferView": 0,
      "byteOffset": 6811908,
      "componentType": 5125,
      "count": 75888,
      "type": "SCALAR"
    },
    {
      "bufferView": 2,
      "byteOffset": 14824128,
      "componentType": 5126,
      "count": 1434,
      "max": [
        6.323497772216797,
        5.491569995880127,
        0.014312000013887882
      ],
      "min": [
        -2.1914589405059814,
        -5.716132164001465,
        0.014310999773442745
      ],
      "type": "VEC3"
    },
    {
      "bufferView": 2,
      "byteOffset": 14841336,
      "componentType": 5126,
      "count": 1434,
      "max": [
        2.3618920863555104e-07,
        2.161304024639321e-09,
        1.0
      ],
      "min": [
        -0.0007330699590966105,
        -2.1483789168996736e-05,
        -1.0
      ],
      "type": "VEC3"
    },
    {
      "bufferView": 1,
      "byteOffset": 4941376,
      "componentType": 5126,
      "count": 1434,
      "max": [
        0.7864279747009277,
        0.5
      ],
      "min": [
        0.6448850035667419,
        0.5
      ],
      "type": "VEC2"
    },
    {
      "bufferView": 0,
      "byteOffset": 7115460,
      "componentType": 5125,
      "count": 4290,
      "type": "SCALAR"
    }
  ],
  "asset": {
    "extras": {
      "author": "noe-3d.at (https://sketchfab.com/www.noe-3d.at)",
      "license": "CC0-1.0 (http://creativecommons.org/publicdomain/zero/1.0/)",
      "source": "https://sketchfab.com/3d-models/xenophon-1982b8a8a2ed40c5858f2bdcbafa6e7f",
      "title": "Xenophon"
    },
    "generator": "Sketchfab-15.23.0",
    "version": "2.0"
  },
  "bufferViews": [
    {
      "buffer": 0,
      "byteLength": 7132620,
      "name": "floatBufferViews",
      "target": 34963
    },
    {
      "buffer": 0,
      "byteLength": 4952848,
      "byteOffset": 7132620,
      "byteStride": 8,
      "name": "floatBufferViews",
      "target": 34962
    },
    {
      "buffer": 0,
      "byteLength": 14858544,
      "byteOffset": 12085468,
      "byteStride": 12,
      "name": "floatBufferViews",
      "target": 34962
    }
  ],
  "buffers": [
    {
      "byteLength": 26944012,
      "uri": "scene.bin"
    }
  ],
  "extensionsUsed": [
    "KHR_materials_specular"
  ],
  "images": [
    {
      "uri": "textures/Xenophon_O_Material_u1_v1_baseColor.png"
    }
  ],
  "materials": [
    {
      "doubleSided": true,
      "extensions": {
        "KHR_materials_specular": {
          "specularColorFactor": [
            1.0,
            1.0,
            1.0
          ],
          "specularFactor": 0.0
        }
      },
      "name": "Xenophon_O_Material_u1_v1",
      "pbrMetallicRoughness": {
        "baseColorTexture": {
          "index": 0
        },
        "metallicFactor": 0.0
      }
    },
    {
      "doubleSided": true,
      "extensions": {
        "KHR_materials_specular": {
          "specularColorFactor": [
            1.0,
            1.0,
            1.0
          ],
          "specularFactor": 0.0
        }
      },
      "name": "bottom",
      "pbrMetallicRoughness": {
        "baseColorFactor": [
          0.2078638121563799,
          0.2078638121563799,
          0.2078638121563799,
          1.0
        ],
        "metallicFactor": 0.0
      }
    }
  ],
  "meshes": [
    {
      "name": "Object_0",
      "primitives": [
        {
          "attributes": {
            "NORMAL": 1,
            "POSITION": 0,
            "TEXCOORD_0": 2
          },
          "indices": 3,
          "material": 0,
          "mode": 4
        }
      ]
    },
    {
      "name": "Object_1",
      "primitives": [
        {
          "attributes": {
            "NORMAL": 5,
            "POSITION": 4,
            "TEXCOORD_0": 6
          },
          "indices": 7,
          "material": 0,
          "mode": 4
        }
      ]
    },
    {
      "name": "Object_2",
      "primitives": [
        {
          "attributes": {
            "NORMAL": 9,
            "POSITION": 8,
            "TEXCOORD_0": 10
          },
          "indices": 11,
          "material": 0,
          "mode": 4
        }
      ]
    },
    {
      "name": "Object_3",
      "primitives": [
        {
          "attributes": {
            "NORMAL": 13,
            "POSITION": 12,
            "TEXCOORD_0": 14
          },
          "indices": 15,
          "material": 0,
          "mode": 4
        }
      ]
    },
    {
      "name": "Object_4",
      "primitives": [
        {
          "attributes": {
            "NORMAL": 17,
            "POSITION": 16,
            "TEXCOORD_0": 18
          },
          "indices": 19,
          "material": 0,
          "mode": 4
        }
      ]
    },
    {
      "name": "Object_5",
      "primitives": [
        {
          "attributes": {
            "NORMAL": 21,
            "POSITION": 20,
            "TEXCOORD_0": 22
          },
          "indices": 23,
          "material": 0,
          "mode": 4
        }
      ]
    },
    {
      "name": "Object_6",
      "primitives": [
        {
          "attributes": {
            "NORMAL": 25,
            "POSITION": 24,
            "TEXCOORD_0": 26
          },
          "indices": 27,
          "material": 0,
          "mode": 4
        }
      ]
    },
    {
      "name": "Object_7",
      "primitives": [
        {
          "attributes": {
            "NORMAL": 29,
            "POSITION": 28,
            "TEXCOORD_0": 30
          },
          "indices": 31,
          "material": 0,
          "mode": 4
        }
      ]
    },
    {
      "name": "Object_8",
      "primitives": [
        {
          "attributes": {
            "NORMAL": 33,
            "POSITION": 32,
            "TEXCOORD_0": 34
          },
          "indices": 35,
          "material": 0,
          "mode": 4
        }
      ]
    },
    {
      "name": "Object_9",
      "primitives": [
        {
          "attributes": {
            "NORMAL": 37,
            "POSITION": 36,
            "TEXCOORD_0": 38
          },
          "indices": 39,
          "material": 0,
          "mode": 4
        }
      ]
    },
    {
      "name": "Object_10",
      "primitives": [
        {
          "attributes": {
            "NORMAL": 41,
            "POSITION": 40,
            "TEXCOORD_0": 42
          },
          "indices": 43,
          "material": 1,
          "mode": 4
        }
      ]
    }
  ],
  "nodes": [
    {
      "children": [
        1
      ],
      "matrix": [
        -0.9999079704284668,
        3.0122565759748897e-18,
        -0.01356599759310484,
        0.0,
        -0.01356599759310484,
        -2.220241702551788e-16,
        0.9999079704284668,
        0.0,
        0.0,
        1.0,
        2.220446049250313e-16,
        0.0,
        0.0,
        0.0,
        0.0,
        1.0
      ],
      "name": "Sketchfab_model"
    },
    {
      "children": [
        2,
        3,
        4,
        5,
        6,
        7,
        8,
        9,
        10,
        11,
        12
      ],
      "name": "Xenophon_CN.obj.cleaner.materialmerger.gles"
    },
    {
      "mesh": 0,
      "name": "Object_2"
    },
    {
      "mesh": 1,
      "name": "Object_3"
    },
    {
      "mesh": 2,
      "name": "Object_4"
    },
    {
      "mesh": 3,
      "name": "Object_5"
    },
    {
      "mesh": 4,
      "name": "Object_6"
    },
    {
      "mesh": 5,
      "name": "Object_7"
    },
    {
      "mesh": 6,
      "name": "Object_8"
    },
    {
      "mesh": 7,
      "name": "Object_9"
    },
    {
      "mesh": 8,
      "name": "Object_10"
    },
    {
      "mesh": 9,
      "name": "Object_11"
    },
    {
      "mesh": 10,
      "name": "Object_12"
    }
  ],
  "samplers": [
    {
      "magFilter": 9729,
      "minFilter": 9987,
      "wrapS": 10497,
      "wrapT": 10497
    }
  ],
  "scene": 0,
  "scenes": [
    {
      "name": "Sketchfab_Scene",
      "nodes": [
        0
      ]
    }
  ],
  "textures": [
    {
      "sampler": 0,
      "source": 0
    }
  ]
}
